<?xml version="1.0" standalone="no"?>
<!DOCTYPE svg PUBLIC "-//W3C//DTD SVG 20010904//EN"
 "http://www.w3.org/TR/2001/REC-SVG-20010904/DTD/svg10.dtd">
<svg version="1.0" xmlns="http://www.w3.org/2000/svg"
 width="2048.000000pt" height="2048.000000pt" viewBox="0 0 2048.000000 2048.000000"
 preserveAspectRatio="xMidYMid meet">

<g transform="translate(0.000000,2048.000000) scale(0.100000,-0.100000)"
fill="#000000" stroke="none">
<path d="M0 10240 l0 -10240 10240 0 10240 0 0 10240 0 10240 -10240 0 -10240
0 0 -10240z m10765 8666 c723 -62 1309 -172 1910 -356 250 -77 358 -115 610
-215 1001 -397 1778 -872 2535 -1549 394 -354 805 -791 1106 -1176 118 -151
377 -521 369 -528 -1 -2 -18 11 -36 27 -18 17 -37 31 -42 31 -4 0 -27 9 -49
20 -23 11 -48 20 -55 20 -8 0 -11 5 -8 10 3 6 -2 10 -12 10 -30 0 -72 23 -79
43 -3 9 -12 17 -20 17 -8 0 -34 20 -58 45 -25 25 -50 45 -55 45 -6 0 -11 4
-11 9 0 12 -70 87 -282 303 -98 99 -178 182 -178 184 0 2 -23 26 -52 52 -29
26 -86 81 -128 123 -41 42 -94 93 -117 112 -24 19 -91 80 -150 135 -60 55
-144 132 -188 171 -118 105 -450 353 -605 452 -74 47 -225 147 -335 220 -893
599 -1745 977 -2764 1225 -949 231 -1888 281 -3129 164 -131 -12 -157 -6 -213
51 -70 69 -78 150 -23 230 42 61 86 75 279 93 179 16 548 43 675 50 183 9 934
-4 1105 -18z m-2669 -292 c67 -32 99 -110 71 -176 -15 -36 -52 -54 -78 -37 -7
4 -43 6 -81 4 -67 -3 -69 -2 -83 25 -32 62 -7 141 57 180 40 24 69 25 114 4z
m-616 -189 c125 -65 75 -255 -67 -255 -54 0 -108 44 -123 101 -9 33 -8 47 9
84 33 75 112 106 181 70z m3265 -155 c399 -30 840 -96 1223 -184 289 -67 780
-217 1067 -326 970 -370 1823 -916 2643 -1688 241 -228 716 -748 822 -901 68
-98 -14 -219 -130 -192 -66 15 -92 38 -245 221 -38 46 -158 179 -266 295 -781
840 -1729 1510 -2714 1918 -593 245 -1309 441 -1905 521 -1127 151 -2209 71
-3374 -250 -145 -40 -192 -41 -233 -2 -53 49 -66 104 -36 161 32 64 68 80 353
156 583 157 1172 250 1770 281 209 10 829 4 1025 -10z m-4940 -479 c117 -54
153 -192 72 -280 -12 -13 -110 -82 -217 -154 -481 -321 -785 -547 -1014 -756
-50 -45 -109 -90 -131 -101 -163 -79 -314 95 -217 251 70 112 638 564 1107
879 277 186 314 201 400 161z m5763 -225 c34 -32 37 -39 37 -90 0 -48 -4 -59
-30 -86 -29 -29 -106 -56 -91 -32 4 6 -1 11 -11 11 -60 1 -106 35 -119 87 -9
37 17 96 55 121 53 36 112 32 159 -11z m-4969 -51 c66 -34 100 -106 86 -181
-11 -59 -66 -105 -235 -195 -290 -154 -293 -155 -370 -113 -113 61 -129 190
-35 273 35 30 281 169 370 208 59 26 143 30 184 8z m1576 -30 c33 -7 90 -58
105 -95 19 -45 5 -114 -32 -155 -26 -30 -49 -41 -162 -76 -199 -62 -608 -212
-804 -295 -285 -122 -610 -290 -912 -472 -327 -197 -762 -526 -1049 -791 -235
-218 -654 -683 -863 -958 -80 -104 -142 -139 -227 -127 -85 13 -149 103 -136
191 7 50 59 132 157 249 37 43 131 156 210 249 78 94 244 272 368 396 599 600
1149 999 1900 1378 386 195 630 292 1127 450 218 70 236 73 318 56z m4009 -36
c67 -53 75 -151 15 -201 -34 -28 -39 -29 -140 -7 -136 30 -86 229 57 229 27 0
51 -7 68 -21z m-1779 -249 c548 -26 1039 -110 1575 -270 281 -84 406 -130 660
-237 394 -167 606 -276 980 -502 243 -146 300 -203 300 -294 0 -96 -77 -176
-168 -177 -46 0 -72 13 -217 105 -132 84 -594 341 -737 409 -727 349 -1454
542 -2251 597 -206 14 -935 7 -1158 -11 l-156 -13 -49 24 c-57 28 -90 73 -100
135 -5 37 -2 54 22 102 47 93 66 99 374 117 433 25 627 28 925 15z m2856 -156
c109 -44 494 -241 678 -346 717 -411 1423 -1013 1925 -1643 49 -60 111 -138
140 -173 28 -35 62 -82 75 -105 l24 -42 -24 27 c-25 27 -69 47 -69 30 0 -9
-78 -37 -94 -33 -4 1 -14 -6 -22 -16 -7 -10 -14 -14 -14 -10 0 4 -10 3 -21 -4
-15 -8 -19 -8 -15 0 11 17 -1 13 -43 -13 -44 -28 -52 -43 -39 -71 5 -11 -6 -2
-24 20 -18 22 -70 85 -116 140 -146 175 -468 517 -605 642 -411 375 -805 678
-1242 953 -117 73 -328 189 -612 337 -112 58 -203 107 -203 109 0 2 17 -4 38
-14 58 -30 151 -20 138 14 -3 9 1 14 12 15 10 0 12 3 5 6 -17 6 -16 30 1 36 8
3 22 24 32 46 10 23 21 41 25 41 13 0 3 61 -12 71 -24 15 -5 10 62 -17z
m-4624 -25 c34 -13 80 -55 99 -91 20 -38 17 -81 -7 -139 -30 -68 -61 -84 -314
-163 -482 -150 -878 -311 -1245 -505 -615 -327 -1060 -659 -1586 -1185 -171
-172 -281 -293 -606 -669 -84 -97 -175 -125 -252 -78 -85 53 -109 146 -62 239
63 123 406 522 682 792 511 498 939 823 1477 1119 459 253 896 435 1487 619
254 79 271 82 327 61z m-3269 -332 c39 -38 54 -84 41 -132 -10 -35 -43 -68
-309 -305 -683 -610 -1267 -1309 -1658 -1985 -189 -328 -462 -984 -610 -1465
-190 -619 -275 -1022 -342 -1614 -24 -216 -33 -240 -109 -278 -74 -38 -125
-37 -179 2 -72 52 -88 104 -71 239 55 457 104 720 210 1146 135 540 378 1205
606 1660 73 146 178 342 208 390 17 28 43 70 57 95 41 72 181 289 271 417 232
334 402 550 676 862 277 315 950 944 1066 997 45 21 104 9 143 -29z m-1627
-710 c46 -31 97 -100 105 -144 10 -53 -16 -97 -159 -274 -277 -344 -498 -659
-694 -989 -73 -122 -235 -414 -283 -509 -24 -49 -45 -79 -51 -75 -7 4 -9 -1
-5 -14 4 -11 2 -23 -3 -27 -6 -3 -8 0 -5 8 8 22 -25 42 -72 42 -24 1 -44 -1
-44 -5 0 -3 -17 -6 -38 -7 -101 -4 -176 -30 -187 -63 -4 -12 -9 -20 -11 -17
-7 6 105 245 240 513 209 417 486 857 794 1264 182 240 209 269 266 296 64 30
104 30 147 1z m7005 -36 c63 -29 89 -72 89 -151 0 -52 -5 -72 -23 -98 -34 -47
-89 -72 -161 -72 -50 0 -65 4 -91 26 -80 68 -92 181 -27 253 58 63 134 78 213
42z m-567 -196 c12 -168 23 -207 77 -262 38 -40 44 -43 93 -43 188 0 596 -57
891 -125 190 -43 541 -160 766 -256 389 -165 438 -200 421 -306 -13 -78 -81
-112 -158 -78 -29 12 -26 21 5 16 9 -2 36 18 36 28 0 3 -10 11 -23 17 -12 6
-58 33 -103 61 -80 49 -427 188 -624 251 -406 129 -963 225 -1275 220 -60 -1
-90 -3 -65 -5 24 -3 49 -8 55 -12 23 -18 83 -30 170 -32 33 -1 65 -5 70 -8 6
-3 26 -7 45 -8 19 -1 36 -7 38 -13 3 -8 8 -8 18 0 7 7 19 8 26 4 7 -5 19 -9
28 -10 46 -5 85 -16 91 -26 4 -6 11 -8 15 -6 5 3 25 -1 44 -8 l35 -14 -36 5
c-206 30 -624 62 -631 49 -6 -10 7 -440 17 -591 l7 -91 69 -7 c55 -6 69 -11
74 -26 4 -11 3 -105 0 -208 l-8 -188 -53 -6 c-29 -3 -58 -8 -64 -12 -6 -3 -9
-42 -7 -93 l2 -87 91 -8 92 -9 5 -51 c2 -29 2 -87 -1 -130 -4 -61 -2 -81 9
-88 9 -5 -27 -9 -93 -9 l-108 0 0 -97 c1 -185 16 -295 49 -361 35 -70 74 -118
110 -136 14 -8 100 -31 191 -51 221 -50 317 -83 497 -170 169 -82 256 -135
383 -234 234 -181 424 -406 555 -653 54 -104 119 -257 112 -264 -2 -3 -11 15
-20 38 -18 47 -53 76 -69 60 -16 -16 -18 -63 -4 -91 8 -14 16 -37 20 -51 4
-14 -18 25 -49 85 -101 198 -214 355 -359 501 -198 197 -327 293 -566 417
-305 158 -722 244 -1054 218 -517 -41 -952 -239 -1316 -601 -151 -150 -273
-305 -353 -451 -52 -95 -52 -96 -53 -57 -1 22 -7 45 -13 51 -8 8 -11 8 -11 0
0 -6 -9 -13 -19 -16 -17 -4 -18 -2 -10 20 21 57 132 263 178 333 169 257 474
530 742 665 182 92 364 155 594 205 195 42 204 47 266 142 48 73 53 85 60 161
4 45 8 139 8 210 l1 127 -73 0 -74 0 -6 107 c-4 58 -7 123 -7 145 l0 38 80 0
80 0 0 78 c0 120 -2 122 -71 122 l-58 0 -3 205 -3 205 41 0 c23 0 55 3 73 6
39 8 37 -2 56 338 12 219 12 287 2 359 l-12 90 -170 -6 c-250 -10 -573 -54
-602 -82 -12 -12 -11 -15 9 -20 18 -4 243 0 243 4 0 1 52 3 115 5 108 3 110 3
35 -5 -182 -19 -458 -65 -595 -100 -153 -39 -554 -158 -622 -184 -11 -4 -18
-3 -18 4 0 6 7 11 15 11 10 0 14 9 12 30 -1 16 -4 30 -7 30 -3 0 -45 -11 -93
-25 -112 -33 -235 -87 -230 -101 2 -6 -6 -14 -18 -17 -11 -3 -18 -10 -14 -16
3 -6 1 -11 -5 -11 -6 0 -8 -4 -5 -10 3 -5 -1 -10 -9 -10 -8 0 -30 -14 -48 -31
-18 -18 -27 -29 -20 -25 6 4 12 4 12 1 0 -9 -102 -55 -122 -55 -27 0 -86 57
-98 95 -24 72 22 138 137 198 109 57 417 181 599 241 365 120 815 209 1194
236 80 6 162 13 183 16 92 14 131 94 152 314 8 80 15 150 16 155 3 20 9 -32
18 -170z m-1737 -111 c55 -28 95 -108 84 -169 -13 -69 -98 -135 -173 -135 -82
0 -163 98 -148 178 7 39 35 91 60 112 45 37 119 43 177 14z m-812 -399 c40
-20 70 -74 70 -124 0 -33 -7 -49 -36 -81 -48 -53 -98 -68 -147 -45 -38 18 -70
60 -81 107 -12 50 30 118 89 144 40 17 70 17 105 -1z m2303 -52 c-18 -2 -48
-2 -65 0 -18 2 -4 4 32 4 36 0 50 -2 33 -4z m5034 -73 c137 -103 603 -592 685
-719 33 -53 37 -105 9 -159 -24 -48 -45 -66 -105 -93 -91 -40 -149 -10 -294
155 -49 55 -186 201 -303 323 -203 210 -274 295 -236 280 20 -8 24 6 21 73 -3
62 -6 80 -17 97 -4 6 -2 13 5 15 6 2 8 10 4 17 -6 9 -11 8 -21 -6 -7 -10 -16
-15 -20 -12 -9 10 52 67 78 72 12 3 47 4 79 3 49 -2 63 -8 115 -46z m-290
-137 c-3 -10 -5 -4 -5 12 0 17 2 24 5 18 2 -7 2 -21 0 -30z m-6177 -97 c0 -2
-7 -7 -16 -10 -8 -3 -12 -2 -9 4 6 10 25 14 25 6z m2587 -42 c-3 -3 -12 -4
-19 -1 -8 3 -5 6 6 6 11 1 17 -2 13 -5z m-1960 -10 c-3 -3 -12 -4 -19 -1 -8 3
-5 6 6 6 11 1 17 -2 13 -5z m2000 0 c-3 -3 -12 -4 -19 -1 -8 3 -5 6 6 6 11 1
17 -2 13 -5z m-2082 -20 c-27 -8 -138 -43 -245 -78 -768 -252 -1394 -615
-1919 -1114 -264 -252 -429 -448 -621 -737 -135 -203 -150 -216 -29 -24 240
381 566 744 939 1044 144 116 404 295 574 394 156 92 427 222 626 301 193 77
667 229 710 228 8 0 -7 -6 -35 -14z m2132 10 c-3 -3 -12 -4 -19 -1 -8 3 -5 6
6 6 11 1 17 -2 13 -5z m46 -11 c-7 -2 -19 -2 -25 0 -7 3 -2 5 12 5 14 0 19 -2
13 -5z m107 -23 c106 -29 112 -31 107 -36 -4 -4 -158 37 -192 50 -29 12 19 4
85 -14z m794 -35 c25 -19 9 -19 -24 0 -14 8 -19 14 -10 14 8 0 24 -6 34 -14z
m-528 -49 c395 -133 860 -359 1181 -574 297 -199 484 -352 711 -581 218 -220
364 -404 587 -741 79 -120 161 -260 152 -260 -3 0 -24 33 -47 73 -85 143 -317
475 -333 476 -5 1 -5 -3 -2 -9 12 -20 -21 -9 -48 16 -15 14 -32 22 -37 19 -6
-3 -10 -1 -10 6 0 10 -3 10 -12 1 -8 -8 -17 -8 -31 0 -16 8 -23 7 -32 -5 -9
-13 -14 -14 -23 -5 -9 9 -12 9 -12 1 0 -7 -14 -10 -34 -9 -25 2 -33 0 -29 -10
3 -8 0 -14 -6 -14 -6 0 -11 6 -12 13 0 9 -2 9 -5 0 -3 -7 -11 -10 -17 -7 -7 2
-17 -7 -24 -21 -9 -21 -7 -30 18 -65 51 -70 24 -43 -52 52 -107 135 -334 383
-420 459 -106 95 -421 360 -453 381 -19 13 0 18 32 9 27 -8 34 -7 42 9 5 10 7
26 4 34 -3 9 -2 16 2 16 5 0 10 17 12 38 4 69 6 77 16 84 21 15 -119 131 -241
200 -294 166 -665 334 -912 415 -58 18 -107 36 -110 38 -11 12 24 2 145 -39z
m605 19 c5 4 9 1 9 -4 0 -14 -3 -14 -34 0 -14 7 -23 16 -20 21 3 4 12 1 20 -7
9 -8 20 -13 25 -10z m1015 -55 c57 -28 310 -213 424 -308 188 -159 369 -344
652 -669 56 -64 278 -374 302 -421 26 -51 23 -124 -8 -176 -33 -57 -66 -82
-129 -101 -132 -39 -169 -16 -312 195 -184 272 -325 441 -521 625 -236 222
-352 318 -565 473 -159 115 -196 165 -183 248 21 142 191 209 340 134z m-5959
-16 c95 -46 133 -133 95 -215 -26 -56 -39 -70 -137 -149 -306 -247 -605 -530
-755 -715 -36 -44 -90 -111 -121 -148 -31 -37 -112 -149 -180 -248 -80 -119
-134 -189 -158 -204 -88 -58 -185 -48 -257 27 -55 57 -64 77 -64 139 0 79 71
203 280 484 270 365 919 982 1106 1051 52 19 125 11 191 -22z m9491 -106 c52
-27 101 -82 203 -233 159 -234 307 -485 401 -684 113 -236 146 -317 126 -305
-8 5 -9 2 -5 -10 6 -14 4 -15 -16 -5 -23 13 -87 22 -70 10 6 -4 5 -15 -3 -29
-8 -16 -14 -20 -19 -12 -5 8 -11 6 -20 -7 -7 -10 -11 -21 -8 -26 2 -4 1 -7 -4
-6 -4 1 -15 1 -23 0 -13 -1 -13 -2 0 -11 8 -5 10 -10 4 -10 -6 0 -17 7 -24 15
-11 14 -15 13 -27 -5 -14 -20 -16 -20 -34 -4 -17 16 -19 16 -20 1 -6 -75 2
-114 40 -211 18 -43 30 -81 27 -83 -2 -2 -7 6 -11 19 -17 53 -168 365 -239
494 -96 171 -245 397 -407 614 -157 211 -182 258 -177 327 12 141 174 226 306
161z m847 -88 c44 -17 74 -59 150 -210 115 -231 227 -471 222 -476 -3 -3 -8 3
-11 13 -5 14 -16 19 -51 19 -25 1 -45 -2 -45 -5 0 -3 -19 -7 -43 -8 -111 -6
-137 -18 -137 -62 -1 -18 -25 21 -78 124 -43 83 -100 188 -127 235 -98 172
-115 240 -75 305 36 59 129 90 195 65z m-8141 -62 c8 -18 37 -99 65 -180 50
-146 50 -148 28 -153 -120 -29 -321 -74 -322 -72 -8 12 -96 306 -101 335 l-6
38 134 31 c176 41 186 41 202 1z m2042 -144 c91 -37 168 -72 170 -78 3 -7 -15
-57 -39 -112 -24 -54 -56 -131 -72 -171 l-28 -72 -66 25 c-36 14 -110 44 -164
66 -85 36 -98 45 -94 63 3 11 24 83 47 160 23 77 45 150 47 163 3 12 12 22 19
22 8 0 89 -30 180 -66z m-2513 -117 c31 -94 57 -176 57 -180 0 -15 -254 -128
-263 -116 -2 2 -26 56 -54 119 -61 136 -97 230 -90 236 2 2 58 25 123 50 65
25 128 49 139 54 11 5 22 9 25 9 3 1 31 -77 63 -172z m-5068 -2 c60 -63 55
-137 -11 -187 -28 -21 -43 -26 -68 -21 -17 3 -35 10 -40 14 -15 13 -44 11 -49
-3 -4 -9 -6 -8 -6 2 -1 8 -10 21 -21 27 -45 29 -31 125 26 178 22 20 37 25 82
25 49 0 58 -3 87 -35z m4597 -150 c36 -71 72 -146 79 -168 12 -37 12 -40 -12
-57 -13 -11 -62 -40 -108 -66 -69 -38 -85 -44 -96 -33 -31 35 -201 327 -193
334 13 12 245 123 253 121 6 -1 40 -60 77 -131z m3416 68 c47 -22 82 -43 82
-52 0 -7 -25 -62 -57 -120 -31 -58 -67 -127 -81 -152 -15 -28 -31 -46 -41 -45
-20 2 -79 31 -111 55 l-24 19 48 109 c26 59 57 134 69 165 12 32 24 58 27 58
3 0 42 -17 88 -37z m385 -218 c41 -27 76 -53 76 -56 1 -5 -71 -118 -180 -281
l-32 -47 -26 20 c-14 11 -55 40 -89 65 -48 34 -62 49 -57 62 3 9 45 86 92 170
l86 152 27 -17 c14 -10 61 -40 103 -68z m-4203 -96 c56 -82 104 -157 107 -166
7 -18 -3 -27 -134 -117 l-92 -64 -75 91 c-40 51 -99 121 -130 157 -52 61 -54
66 -38 82 31 30 234 168 248 168 8 0 59 -68 114 -151z m1790 131 c0 -5 -2 -10
-4 -10 -54 0 -319 -37 -431 -60 -138 -29 -438 -119 -634 -190 -46 -16 -86 -28
-88 -26 -6 5 93 51 193 90 250 95 471 156 674 185 41 6 86 13 100 15 57 8 190
5 190 -4z m766 -19 c458 -68 876 -234 1289 -511 92 -63 287 -220 404 -328 265
-244 534 -601 676 -897 92 -194 191 -479 210 -607 7 -46 6 -48 -17 -48 -13 0
-28 -4 -34 -10 -5 -5 -59 -12 -119 -16 l-110 -7 -43 139 c-236 756 -758 1361
-1492 1729 -265 133 -545 221 -878 275 l-73 12 2 136 c1 76 4 140 6 145 6 11
35 9 179 -12z m5454 -49 c40 -21 80 -90 80 -137 0 -40 -32 -90 -72 -115 -51
-31 -128 -27 -169 7 -109 92 -56 263 81 263 25 0 61 -8 80 -18z m-11819 -67
c54 -29 85 -107 58 -145 -9 -12 -10 -11 -6 6 2 11 -1 27 -7 35 -16 20 -72 39
-84 27 -8 -8 -40 -15 -79 -17 -20 -1 -35 -94 -19 -119 18 -29 -6 -8 -29 25
-31 47 -32 87 -1 137 39 64 103 84 167 51z m-642 -139 c42 -22 89 -81 97 -121
10 -53 -1 -92 -57 -206 -305 -622 -503 -1310 -574 -1994 -22 -219 -27 -245
-37 -239 -5 3 -7 12 -4 20 3 7 1 16 -5 19 -5 4 -7 11 -4 16 4 5 -1 9 -9 9 -8
0 -13 6 -10 13 2 7 -8 17 -25 24 -25 9 -31 8 -34 -6 -3 -12 -7 -10 -15 10 -12
30 -32 37 -91 34 -41 -2 -42 -2 -24 18 17 19 17 20 1 14 -13 -4 -18 -1 -18 10
0 14 -3 13 -19 -4 -11 -12 -20 -29 -20 -39 0 -56 -11 -119 -20 -122 -15 -5
-14 -23 0 -20 6 2 14 -3 17 -11 3 -8 0 -11 -7 -7 -17 11 -13 -9 8 -36 16 -20
17 -25 5 -25 -18 0 -49 42 -57 78 -9 36 10 309 34 499 67 530 196 1022 403
1537 142 352 218 497 279 527 41 20 148 21 186 2z m13087 -297 c75 -19 118
-79 217 -298 72 -158 195 -469 222 -559 l7 -24 -21 21 c-12 12 -30 21 -42 21
-11 0 -17 5 -14 10 10 15 -5 12 -22 -6 -9 -8 -25 -14 -37 -13 -11 0 -23 0 -26
-1 -3 -1 -18 -4 -35 -5 -79 -9 -137 -29 -145 -51 -5 -12 -13 -25 -18 -28 -5
-3 -7 -18 -5 -33 2 -16 -10 8 -28 52 -17 44 -53 135 -80 203 -27 67 -86 202
-130 300 -93 200 -103 245 -71 308 37 72 80 100 175 113 5 1 28 -4 53 -10z
m-14580 -155 c18 -9 47 -37 65 -63 28 -41 30 -52 26 -101 -3 -30 -28 -122 -56
-205 -178 -536 -276 -987 -347 -1599 -12 -104 -23 -161 -38 -190 -56 -109
-227 -116 -296 -10 -26 39 -26 135 0 381 62 581 148 984 317 1483 73 216 90
254 126 288 47 44 130 51 203 16z m3167 -254 c51 -57 30 -145 -43 -174 -60
-24 -79 -20 -122 24 -45 49 -50 89 -15 141 43 64 126 69 180 9z m11971 -20 c5
-17 4 -20 -2 -10 -5 8 -13 26 -16 40 -5 17 -4 20 2 10 5 -8 13 -26 16 -40z
m26 -65 c0 -5 -5 -3 -10 5 -5 8 -10 20 -10 25 0 6 5 3 10 -5 5 -8 10 -19 10
-25z m-10497 -50 c-3 -9 -8 -14 -10 -11 -3 3 -2 9 2 15 9 16 15 13 8 -4z m94
-66 c23 -16 44 -29 48 -29 3 0 15 -8 26 -19 44 -40 132 -95 164 -100 29 -5 32
-8 22 -22 -10 -14 -32 -2 -164 90 -83 58 -159 112 -170 119 -15 10 -14 11 7 1
14 -7 44 -25 67 -40z m-147 -165 c25 -17 90 -57 145 -89 55 -32 112 -67 128
-77 l27 -20 -41 -79 -41 -79 -67 36 c-36 20 -123 68 -193 106 -71 39 -128 73
-128 75 0 3 23 43 51 89 32 54 55 82 62 77 7 -4 32 -21 57 -39z m6780 42 c0
-2 -7 -7 -16 -10 -8 -3 -12 -2 -9 4 6 10 25 14 25 6z m-440 -37 c0 -14 -17
-10 -23 5 -4 10 -1 13 9 9 7 -3 14 -9 14 -14z m1154 -55 c3 -8 2 -12 -4 -9 -6
3 -10 10 -10 16 0 14 7 11 14 -7z m-4015 -108 c58 -57 122 -117 141 -132 19
-16 96 -81 170 -144 144 -124 367 -306 564 -460 66 -52 153 -126 191 -163 l70
-69 -70 54 c-38 30 -146 106 -240 168 -93 63 -198 136 -232 162 -34 26 -65 48
-68 48 -3 0 -45 -33 -93 -73 -218 -183 -457 -369 -509 -396 -12 -6 -28 -11
-36 -11 -25 0 -113 66 -302 225 -215 180 -320 265 -329 265 -3 0 -59 -40 -123
-88 -365 -275 -475 -355 -513 -376 -13 -8 -13 -7 0 6 42 42 396 340 545 459
281 224 560 464 675 583 25 25 47 46 49 46 3 0 52 -47 110 -104z m-4776 61
c37 -24 67 -75 67 -112 0 -17 -10 -51 -22 -75 -18 -34 -30 -47 -53 -51 -16 -4
-162 -7 -323 -8 -244 -1 -298 2 -322 14 -35 18 -60 62 -60 105 0 35 30 99 56
121 21 17 189 27 449 25 156 -1 185 -3 208 -19z m9995 -3 c34 -26 62 -80 62
-122 0 -50 -25 -101 -56 -112 -17 -7 -141 -10 -337 -8 l-309 3 -29 33 c-24 27
-29 41 -29 85 0 47 5 59 34 93 l34 39 193 6 c313 10 405 6 437 -17z m-2241
-50 c-3 -4 3 -29 13 -57 25 -66 20 -70 -10 -8 -20 43 -21 71 -3 71 4 0 4 -3 0
-6z m65 -188 c-2 -5 -11 6 -18 24 -19 45 -17 51 5 15 10 -16 16 -34 13 -39z
m-6621 -162 c107 -53 195 -97 197 -99 2 -2 -3 -16 -12 -32 -8 -15 -15 -22 -16
-15 0 21 -20 35 -90 66 -36 16 -116 53 -179 82 -62 30 -117 54 -122 54 -5 0
-9 9 -9 20 0 13 7 20 18 20 10 0 106 -43 213 -96z m7139 73 c0 -7 -81 -53
-181 -102 -114 -56 -184 -96 -188 -107 -6 -18 -8 -17 -21 6 -7 14 -11 28 -9
30 14 11 375 186 386 186 7 0 13 -6 13 -13z m-8901 -144 l632 -6 -6 -41 c-9
-57 -30 -128 -49 -164 -11 -21 -25 -31 -48 -35 -18 -3 -399 -6 -846 -7 -904
-1 -853 -5 -887 66 -29 62 -8 141 49 175 37 22 123 23 1155 12z m11650 -6 c44
-22 66 -63 66 -124 0 -50 -3 -57 -37 -89 l-38 -34 -859 0 -860 0 -19 28 c-23
34 -37 69 -61 154 l-18 68 341 3 c1044 8 1461 7 1485 -6z m-4495 -446 c-6 -6
-11 1 -18 29 l-7 25 15 -25 c8 -14 12 -27 10 -29z m-6964 -234 c-26 -12 -93
-56 -150 -97 l-105 -75 -140 -1 c-77 -1 -205 -5 -285 -8 -80 -3 -212 -8 -295
-11 -82 -3 -193 -8 -245 -11 -85 -5 -129 -8 -238 -13 -22 0 -31 -5 -26 -12 4
-7 1 -10 -7 -7 -8 3 -20 -2 -28 -9 -19 -19 -31 -13 -53 27 -38 71 -11 167 59
215 l38 25 760 0 760 -1 -45 -22z m11596 1 c41 -28 74 -85 74 -127 0 -42 -25
-99 -57 -133 -32 -33 -43 -35 -43 -8 0 13 -7 20 -20 20 -11 0 -20 3 -20 8 0 4
-20 8 -45 8 -25 1 -51 6 -57 12 -41 32 -333 49 -735 43 -83 -2 -157 0 -164 5
-8 5 -9 3 -4 -6 5 -7 -21 7 -56 32 -103 73 -210 131 -274 149 -58 17 -40 18
654 18 l715 1 32 -22z m1048 -284 c3 -8 2 -12 -4 -9 -6 3 -10 10 -10 16 0 14
7 11 14 -7z m-6450 -47 c197 -59 350 -202 433 -404 40 -99 48 -158 48 -378 0
-174 -3 -222 -19 -280 -53 -198 -186 -364 -361 -450 -108 -53 -178 -67 -379
-74 l-179 -6 204 -146 c112 -80 386 -276 609 -436 223 -159 432 -307 464 -329
l59 -39 -109 -6 c-60 -4 -344 -7 -630 -8 l-522 -1 -93 67 c-52 37 -161 117
-244 178 -595 438 -840 618 -916 671 l-77 54 -159 0 -160 0 -6 -262 c-4 -145
-7 -360 -7 -479 0 -216 0 -217 -22 -223 -33 -9 -601 -7 -615 2 -9 6 -12 198
-14 792 l-2 785 1164 5 c1116 5 1166 6 1202 24 120 60 130 218 18 284 l-46 27
-1165 5 -1165 5 -3 208 c-1 114 -6 207 -10 207 -8 0 -133 -105 -267 -224 -157
-141 -208 -171 -312 -186 -41 -6 -510 -10 -1178 -11 -824 0 -1118 -4 -1140
-12 -75 -29 -105 -74 -105 -157 0 -67 30 -118 87 -146 36 -18 84 -19 1093 -24
975 -6 1060 -7 1115 -24 99 -29 193 -85 264 -156 81 -80 127 -156 160 -263 23
-77 25 -96 25 -302 0 -253 -11 -312 -86 -465 -33 -68 -58 -102 -127 -170 -98
-97 -183 -147 -307 -183 l-79 -22 -1323 -3 -1324 -3 -61 53 c-270 230 -647
570 -655 589 -2 4 700 6 1560 6 1508 -2 1564 -1 1601 17 127 63 129 225 3 294
-29 16 -113 17 -1071 22 l-1040 5 -81 27 c-232 79 -388 263 -441 517 -21 101
-14 466 11 556 24 88 77 192 129 257 92 112 249 203 389 227 30 5 1301 8 2928
7 2724 -1 2878 -2 2934 -19z m1692 -8 c50 -32 351 -271 644 -513 91 -74 171
-136 178 -136 7 0 49 33 95 73 120 106 533 464 597 518 107 89 86 84 345 84
224 0 232 -1 306 -27 275 -97 430 -302 459 -604 5 -60 10 -331 10 -603 l0
-494 -52 -46 c-161 -144 -542 -495 -584 -538 -23 -24 -43 -43 -45 -43 -2 0 -3
351 -1 780 2 744 2 780 -15 771 -10 -6 -48 -36 -85 -68 -36 -32 -185 -159
-330 -282 -145 -123 -303 -258 -352 -300 -214 -182 -320 -271 -325 -271 -6 0
-166 128 -670 535 -150 121 -304 245 -343 277 -38 31 -90 70 -114 88 l-44 31
0 -771 0 -771 -97 78 c-149 118 -378 307 -470 387 l-82 71 0 903 -1 902 463 0
463 0 50 -31z m-8516 -297 c0 -5 -9 -27 -20 -49 -17 -37 -24 -41 -62 -46 -86
-10 -2030 -7 -2171 3 -139 10 -208 23 -236 44 -7 6 -34 11 -60 12 -25 1 -48 3
-51 5 -9 4 -25 7 -60 9 -138 11 227 17 1044 19 523 1 952 4 955 6 8 9 661 5
661 -3z m13734 -13 c6 -5 -6 -10 -35 -11 -42 -1 -58 -3 -69 -8 -3 -1 -20 -3
-39 -4 -19 -1 -40 -10 -50 -21 -9 -11 -32 -22 -51 -24 -19 -2 -53 -5 -75 -8
-22 -2 -455 -6 -962 -9 l-922 -5 -26 52 c-14 29 -25 53 -25 53 0 1 505 0 1122
-2 691 -2 1127 -7 1132 -13z m-14593 -599 c162 -13 287 -34 392 -67 73 -23 89
-33 257 -174 99 -82 180 -151 180 -152 0 -5 -305 -12 -501 -12 l-196 0 -103
90 c-144 127 -190 163 -232 185 -36 19 -62 20 -691 20 -723 0 -1158 18 -1507
62 -89 11 -92 12 -55 20 154 31 2119 54 2456 28z m15344 -9 c110 -6 211 -14
225 -18 22 -5 19 -7 -20 -14 -62 -12 -355 -36 -658 -54 -178 -10 -440 -15
-878 -15 -604 0 -626 -1 -667 -20 -23 -11 -111 -76 -194 -145 l-153 -125 -324
2 -324 3 169 140 c111 92 192 151 236 172 74 35 222 68 368 82 130 13 1977 6
2220 -8z m-943 -438 l97 -6 -4 -41 c-31 -279 -70 -517 -109 -648 -11 -39 -14
-43 -41 -40 -38 5 -158 44 -253 84 -56 23 -72 34 -67 46 14 38 66 320 83 452
l18 145 39 6 c58 9 128 10 237 2z m-2077 -570 c-30 -26 -327 -301 -505 -468
-53 -49 -114 -102 -136 -117 l-39 -27 -158 6 -158 6 93 94 c51 52 154 149 228
216 74 67 179 163 233 214 l97 93 168 3 c92 1 176 3 187 4 17 2 15 -2 -10 -24z
m-13121 -680 c37 -73 88 -213 93 -259 12 -110 -91 -203 -176 -159 -64 32 -97
88 -155 254 -38 109 -42 126 -26 116 5 -3 47 10 92 28 133 55 152 57 172 20z
m3326 -528 c48 -25 90 -84 90 -128 0 -19 -6 -26 -31 -31 -55 -11 -89 -7 -89 9
0 29 -47 65 -83 65 -70 0 -105 -80 -87 -197 23 -142 65 -166 152 -88 43 39 56
45 94 45 43 0 44 -1 44 -34 0 -67 -74 -139 -156 -152 -111 -16 -187 25 -224
124 -31 82 -26 236 10 307 28 54 62 83 111 95 42 11 136 2 169 -15z m5401 0
c40 -21 85 -81 99 -131 8 -26 11 -82 8 -141 -3 -85 -7 -105 -31 -145 -36 -61
-72 -86 -138 -94 -75 -9 -132 9 -184 57 -36 33 -46 50 -56 97 -16 81 -8 219
17 267 25 47 81 94 126 106 42 10 123 2 159 -16z m2940 15 l29 0 0 -249 c0
-214 -2 -252 -16 -265 -18 -19 -47 -20 -77 -4 -27 14 -28 16 -122 155 -42 62
-80 115 -85 118 -6 4 -10 -47 -10 -134 l0 -141 -55 0 -55 0 0 229 c0 126 3
243 6 260 6 29 9 31 54 31 54 0 61 -6 110 -95 19 -33 54 -89 79 -125 l46 -64
6 29 c4 17 7 77 8 136 1 106 10 135 39 124 8 -3 27 -5 43 -5z m-8832 -85 c28
-65 151 -417 151 -432 0 -2 -25 -3 -56 -1 l-57 3 -14 48 -14 47 -99 0 -99 0
-6 -37 c-11 -63 -11 -63 -70 -63 -30 0 -55 3 -55 8 0 24 86 268 162 460 l21
53 50 -3 51 -3 35 -80z m985 62 c45 -25 76 -77 76 -124 l0 -33 -55 0 c-50 0
-55 2 -61 25 -14 55 -102 76 -141 33 -38 -42 -46 -88 -30 -172 28 -147 83
-175 166 -84 35 37 41 40 74 34 48 -9 52 -19 32 -71 -58 -154 -289 -152 -358
4 -28 63 -34 191 -13 264 17 58 64 123 100 137 12 5 55 9 96 9 60 1 83 -4 114
-22z m499 15 c3 -4 3 -27 0 -52 l-5 -45 -110 4 -109 3 3 -48 3 -49 98 -3 97
-3 0 -54 0 -55 -101 0 -100 0 3 -52 3 -53 108 -3 107 -3 0 -49 0 -50 -159 0
-158 0 -7 81 c-4 45 -4 162 0 260 l7 179 158 0 c87 0 160 -3 162 -8z m197
-202 l0 -210 105 0 c102 0 105 -1 111 -24 3 -13 4 -35 2 -47 -3 -24 -3 -24
-165 -27 l-163 -2 0 237 c0 131 3 248 6 261 6 19 13 22 55 22 l49 0 0 -210z
m398 -4 l2 -209 104 5 104 6 4 -47 c3 -25 3 -49 1 -53 -2 -5 -76 -8 -164 -8
l-159 0 0 261 0 260 53 -3 52 -3 3 -209z m638 188 c47 -35 67 -70 72 -127 5
-65 -22 -136 -62 -162 -36 -24 -33 -46 19 -126 25 -38 45 -74 45 -79 0 -6 -22
-10 -50 -10 -61 0 -74 11 -120 108 -38 77 -44 81 -120 66 l-32 -7 7 -79 7 -79
-53 3 -54 3 -3 235 c-1 129 0 245 3 258 6 23 6 23 160 20 137 -3 157 -5 181
-24z m434 -6 c31 -51 180 -451 180 -483 0 -3 -24 -5 -53 -5 l-53 0 -14 49 -13
50 -51 6 c-28 4 -76 5 -106 3 l-55 -3 -5 -40 c-3 -22 -9 -45 -13 -52 -10 -16
-70 -27 -101 -19 l-25 6 29 73 c15 39 45 115 65 167 21 52 45 123 55 157 10
34 26 76 36 93 16 26 24 30 61 30 38 0 46 -4 63 -32z m518 -25 l-3 -58 -57 -3
-58 -3 0 -102 c0 -56 -3 -146 -7 -199 l-6 -98 -48 0 -49 0 -2 203 -3 202 -58
-3 c-54 -2 -58 -1 -67 24 -11 29 -13 78 -3 87 3 4 87 7 185 7 l179 0 -3 -57z
m390 5 l-3 -53 -107 3 -108 4 0 -51 0 -50 93 -3 92 -3 3 -52 3 -53 -95 0 -96
0 0 -55 0 -55 105 0 c102 0 105 -1 111 -24 3 -13 4 -35 2 -47 -3 -23 -7 -24
-121 -31 -65 -4 -137 -4 -160 0 l-42 7 -3 65 c-2 36 -1 152 3 258 l7 192 160
0 159 0 -3 -52z m543 42 c70 -14 121 -49 156 -107 25 -44 28 -57 28 -143 0
-83 -3 -102 -26 -145 -27 -54 -70 -89 -128 -105 -20 -5 -138 -10 -263 -10
l-228 0 0 253 c0 140 3 257 7 260 10 11 395 8 454 -3z m826 -19 c51 -37 73
-68 73 -102 0 -31 -14 -44 -57 -54 -29 -6 -34 -3 -57 34 -39 61 -111 70 -150
18 -18 -24 -21 -42 -21 -120 1 -107 15 -150 54 -167 40 -16 76 -3 119 42 31
33 42 38 72 36 32 -3 35 -6 38 -36 6 -65 -65 -135 -150 -147 -110 -16 -189 29
-228 131 -38 102 -21 266 35 332 38 45 81 62 161 62 63 0 76 -3 111 -29z m828
-62 c32 -84 89 -194 105 -204 4 -3 11 7 15 23 3 15 27 79 52 143 l45 117 64 7
c35 3 67 4 71 2 4 -3 8 -121 8 -264 l0 -258 -37 1 c-70 2 -68 -3 -69 166 0
172 1 172 -60 3 -51 -144 -69 -177 -92 -173 -30 4 -53 43 -91 148 -19 52 -40
109 -47 125 -13 30 -13 29 -20 -35 -4 -36 -7 -102 -8 -146 l-1 -81 -37 -7
c-21 -3 -44 -6 -50 -6 -10 0 -13 60 -13 265 l0 266 66 -3 66 -3 33 -86z m773
63 c101 -72 91 -232 -18 -291 -34 -19 -64 -26 -128 -29 l-85 -5 6 -83 6 -84
-54 0 -55 0 0 253 c0 140 3 257 7 261 4 4 71 6 148 4 128 -3 143 -5 173 -26z
m252 -157 c0 -184 0 -186 25 -210 13 -14 35 -25 49 -25 38 0 46 42 46 241 l0
179 50 0 50 0 0 -179 c0 -99 4 -191 10 -206 13 -33 50 -47 89 -34 43 15 51 54
51 236 0 83 3 158 6 167 4 12 20 16 56 16 l50 0 -4 -197 c-3 -226 -11 -255
-80 -300 -31 -21 -52 -26 -101 -27 -55 -1 -67 3 -96 27 l-33 28 -24 -26 c-19
-21 -32 -25 -79 -25 -73 0 -108 19 -142 78 -28 47 -28 48 -30 245 l-2 197 55
0 54 0 0 -185z m898 128 c-3 -63 0 -61 -75 -49 l-43 6 0 -199 c0 -110 -3 -206
-6 -215 -4 -12 -20 -16 -54 -16 -60 0 -61 4 -53 175 3 72 3 156 -1 187 l-7 57
-57 3 -57 3 -3 53 -3 52 181 0 181 0 -3 -57z m173 -203 c-1 -140 -6 -259 -10
-263 -5 -5 -26 -7 -47 -5 l-39 3 -6 115 c-4 63 -7 182 -8 263 l-1 148 56 -3
57 -3 -2 -255z m922 227 c37 -28 67 -73 67 -101 0 -18 -30 -36 -78 -47 -30 -6
-34 -5 -46 26 -24 56 -83 73 -124 35 -30 -28 -35 -54 -31 -159 5 -114 24 -146
88 -145 47 1 81 26 81 60 0 19 -8 25 -39 34 -45 12 -52 23 -38 63 8 26 12 27
72 27 34 0 76 3 93 6 l30 6 -5 -83 c-6 -110 -17 -142 -57 -173 -72 -54 -184
-57 -255 -6 -60 44 -83 97 -89 205 -7 135 22 211 98 263 31 21 44 23 116 20
70 -3 85 -7 117 -31z m2087 -301 c0 -2 -8 -10 -17 -17 -16 -13 -17 -12 -4 4
13 16 21 21 21 13z m357 -143 c-3 -5 -44 -75 -92 -158 -132 -225 -246 -402
-373 -580 -63 -88 -117 -165 -119 -172 -3 -7 3 -33 12 -58 23 -60 17 -174 -13
-237 -48 -97 -121 -157 -232 -187 -37 -10 -48 -19 -62 -49 -26 -56 -168 -222
-233 -274 -67 -54 -124 -73 -195 -66 -65 6 -91 30 -141 130 -21 43 -47 81 -56
87 -31 16 -158 31 -260 31 -64 0 -93 3 -83 10 8 5 12 12 8 15 -3 3 -111 -96
-239 -221 -463 -451 -779 -708 -1282 -1043 -249 -166 -321 -211 -502 -311
-464 -257 -449 -250 -514 -250 -108 0 -172 128 -112 226 18 30 51 50 324 195
522 276 1121 699 1537 1083 212 196 510 499 644 655 148 172 296 361 321 410
12 25 33 57 44 71 l22 25 -7 -24 c-4 -17 -3 -22 7 -19 21 7 39 49 29 68 -6 12
7 43 49 113 63 106 86 136 52 70 -15 -30 -17 -43 -8 -47 9 -3 8 -8 -3 -18 -14
-12 -16 -31 -11 -93 1 -16 3 -17 10 -6 5 8 6 21 3 30 -5 14 -4 14 11 2 10 -8
20 -11 24 -8 3 4 13 1 21 -6 11 -8 14 -8 9 0 -10 15 15 22 29 8 7 -6 33 -10
58 -9 26 2 44 -1 41 -5 -7 -12 39 -23 62 -15 15 5 15 4 3 -5 -12 -9 -10 -11
12 -11 21 0 26 -4 23 -20 -4 -23 5 -26 23 -7 17 16 65 18 51 1 -6 -8 -6 -14 0
-18 5 -3 12 0 14 6 4 10 8 10 15 -1 6 -8 17 -11 26 -8 23 9 29 -9 9 -29 -16
-16 -16 -16 4 -10 14 5 23 2 27 -10 4 -12 2 -15 -9 -10 -8 3 -15 1 -15 -5 0
-6 8 -9 18 -7 17 4 18 10 7 41 -5 12 -3 16 7 12 30 -12 16 -66 -15 -61 -5 0
-13 -7 -18 -16 -5 -9 -15 -16 -22 -14 -6 1 -9 1 -4 -1 4 -3 5 -8 2 -13 -8 -13
56 -5 96 12 58 25 133 31 192 17 28 -7 55 -12 60 -11 4 1 7 -3 7 -10 0 -6 2
-9 5 -6 3 3 3 13 -1 22 -4 11 -13 15 -26 10 -14 -4 -18 -2 -14 5 4 6 16 11 27
11 17 0 24 11 20 33 -1 4 4 7 11 6 7 -1 20 1 28 4 8 3 24 7 35 9 13 3 19 11
18 24 -2 15 5 20 27 22 20 2 28 -2 25 -10 -3 -7 4 -19 15 -26 11 -7 20 -9 19
-5 -4 21 3 33 17 33 14 0 15 -2 3 -17 -13 -15 -12 -15 8 -4 13 6 22 17 20 24
-1 7 3 11 10 10 6 -1 24 14 39 35 15 20 31 39 35 42 3 3 14 19 23 37 28 56 97
148 108 145 6 -2 8 3 5 11 -3 8 8 28 24 45 16 17 29 37 29 44 0 7 12 24 25 37
14 12 23 27 20 31 -3 5 -1 10 4 12 5 1 38 54 75 116 37 61 69 112 72 112 3 0
3 -3 1 -7z m-14221 -278 c74 -134 158 -266 197 -310 10 -11 25 -35 34 -52 8
-18 19 -33 24 -33 5 0 9 -5 9 -10 0 -6 9 -20 20 -32 11 -12 20 -27 20 -34 0
-7 9 -16 20 -19 11 -3 20 -11 20 -17 0 -6 7 -5 17 3 12 10 15 10 9 1 -4 -7 0
-19 8 -28 12 -12 13 -20 6 -35 -6 -10 -8 -19 -4 -19 3 0 1 -7 -6 -15 -11 -13
-15 -12 -30 8 -42 54 -215 336 -295 482 -48 88 -101 185 -118 215 -16 30 -25
51 -20 45 6 -5 46 -73 89 -150z m3354 -298 c161 -168 337 -336 512 -491 76
-67 128 -128 128 -151 0 -4 -7 -1 -17 6 -15 13 -16 11 -10 -13 6 -21 1 -33
-23 -60 -16 -18 -30 -36 -30 -40 0 -5 -7 -8 -15 -8 -9 0 -19 -8 -22 -17 -4
-10 -18 -30 -33 -44 -37 -36 -44 -67 -16 -72 11 -2 -6 -7 -39 -12 -56 -7 -64
-6 -121 24 -76 39 -168 116 -356 295 -253 241 -581 606 -651 725 l-18 31 273
0 273 -1 165 -172z m7371 124 c-22 -26 -47 -54 -56 -61 -19 -16 -20 -31 0 -24
8 4 15 2 15 -2 0 -5 10 -9 23 -10 12 -1 33 -4 47 -7 14 -3 31 -6 38 -6 7 -1
10 -5 7 -11 -3 -6 1 -7 9 -4 10 4 16 1 16 -7 0 -10 3 -10 8 -3 7 12 73 14 66
3 -2 -3 10 -6 26 -5 17 1 30 5 30 10 0 5 7 3 15 -4 8 -7 26 -10 40 -8 13 3 26
0 28 -6 2 -7 10 -6 22 4 11 9 16 10 11 3 -7 -12 -3 -14 34 -17 8 -1 18 5 22
14 6 13 7 13 7 -1 1 -12 8 -15 26 -11 14 2 22 8 19 13 -3 5 2 10 10 10 33 3
37 4 46 19 5 8 10 11 10 6 0 -33 -404 -461 -626 -663 -269 -245 -313 -274
-477 -318 -108 -29 -147 -31 -215 -9 -120 39 -192 157 -148 242 20 37 74 88
351 324 134 115 321 288 423 392 101 102 190 186 199 186 10 0 1 -16 -26 -49z
m-4775 -21 c291 -88 525 -131 819 -151 376 -26 842 33 1226 157 174 56 223 58
273 10 50 -47 54 -111 9 -158 -77 -80 -585 -218 -948 -258 -129 -14 -573 -14
-695 0 -293 33 -571 93 -794 170 -195 67 -246 101 -246 163 0 39 35 96 70 115
37 19 102 8 286 -48z m4019 12 c-6 -5 -46 -39 -90 -77 -44 -38 -89 -76 -100
-84 -18 -14 -19 -14 -5 1 32 35 185 167 195 168 6 0 6 -3 0 -8z m2820 -112 c4
-6 12 -7 18 -4 7 4 9 3 4 -1 -14 -16 -47 -16 -47 0 0 17 16 20 25 5z m-7455
-150 c55 -28 100 -55 100 -60 0 -21 -130 -300 -139 -300 -19 1 -187 100 -189
112 -3 13 117 298 125 298 2 0 48 -23 103 -50z m4340 27 c0 -2 -10 -12 -22
-23 l-23 -19 19 23 c18 21 26 27 26 19z m-50 -41 c0 -2 -8 -10 -17 -17 -16
-13 -17 -12 -4 4 13 16 21 21 21 13z m-5180 -82 c0 -7 -88 55 -96 67 -3 6 17
-6 45 -26 28 -20 51 -39 51 -41z m-4030 21 c0 -5 -5 -3 -10 5 -5 8 -10 20 -10
25 0 6 5 3 10 -5 5 -8 10 -19 10 -25z m9170 31 c0 -2 -8 -10 -17 -17 -16 -13
-17 -12 -4 4 13 16 21 21 21 13z m-8785 -45 c77 -36 140 -98 172 -168 22 -48
25 -65 20 -132 -2 -42 -7 -85 -11 -96 -3 -11 0 -6 8 10 8 17 16 44 16 60 1 26
3 27 10 10 8 -19 9 -19 9 3 1 13 6 33 12 44 8 15 8 19 0 14 -8 -5 -8 0 -2 17
6 14 7 28 4 31 -4 3 1 6 11 6 9 0 14 -4 11 -10 -7 -11 9 -45 22 -45 4 0 8 -8
7 -17 0 -10 4 -18 9 -18 5 0 7 -6 4 -14 -4 -9 3 -16 16 -20 17 -5 19 -8 9 -15
-10 -6 -5 -11 17 -21 30 -12 42 -30 21 -30 -5 0 -10 -4 -10 -10 0 -5 7 -7 15
-4 11 5 13 2 9 -10 -4 -11 -1 -16 11 -16 9 0 13 5 10 10 -11 17 5 32 21 19 7
-6 11 -15 8 -20 -3 -5 9 -9 26 -9 17 0 29 -4 25 -9 -3 -5 -1 -12 4 -15 5 -3
11 1 15 9 3 8 15 15 26 15 17 0 20 -4 15 -20 -5 -14 -2 -20 9 -20 9 0 16 6 16
13 1 7 6 5 14 -6 10 -13 16 -15 21 -6 6 8 10 7 17 -5 6 -11 16 -15 29 -11 10
4 19 2 19 -4 0 -6 6 -8 14 -5 11 4 13 0 9 -15 -3 -12 -1 -21 6 -21 6 0 11 7
11 15 0 8 4 15 10 15 5 0 9 -6 7 -12 -1 -7 4 -12 11 -10 8 1 16 -7 19 -19 4
-16 8 -18 14 -7 7 11 11 10 18 -2 5 -8 8 -17 6 -20 -2 -3 12 -4 31 -2 21 3 34
0 34 -7 0 -7 -5 -9 -12 -5 -9 5 -9 2 1 -9 16 -20 22 -22 18 -6 -1 6 4 14 12
17 8 3 11 0 7 -7 -4 -6 -2 -11 3 -11 6 0 11 5 11 11 0 5 5 7 10 4 6 -4 8 -10
5 -14 -6 -11 24 -37 58 -50 18 -7 25 -15 21 -23 -5 -8 -2 -9 10 -5 14 5 17 3
12 -8 -4 -10 1 -15 14 -15 11 0 20 5 20 11 0 5 5 7 12 3 9 -6 9 -9 0 -12 -19
-6 -14 -19 11 -26 16 -4 19 -8 9 -15 -11 -7 -11 -9 1 -14 9 -3 17 2 20 14 3
10 1 19 -4 19 -5 0 -9 6 -9 13 0 6 -7 25 -15 41 -8 15 -13 32 -10 36 3 4 -2
11 -11 14 -8 3 -13 10 -9 15 3 5 -4 12 -14 16 -13 4 -18 11 -14 22 5 12 3 14
-8 8 -8 -4 -11 -5 -7 0 4 4 -2 22 -13 39 l-21 31 29 -31 c15 -17 55 -66 88
-109 57 -75 88 -112 292 -350 117 -137 213 -236 377 -393 77 -72 148 -144 158
-160 26 -39 24 -111 -4 -152 -35 -51 -71 -73 -130 -77 -47 -4 -59 -1 -103 29
-63 42 -466 438 -650 640 -282 308 -325 342 -436 342 -81 -1 -116 -24 -162
-110 -30 -54 -47 -75 -75 -89 -49 -23 -149 -31 -197 -15 -50 17 -160 127 -243
244 -75 105 -81 116 -54 110 10 -3 34 -1 53 5 32 9 31 10 -23 9 -107 -3 -238
84 -296 197 -23 43 -26 62 -27 145 0 85 3 100 27 140 28 49 95 103 155 125 21
7 74 14 118 14 68 1 89 -3 140 -28z m7577 -107 c50 -93 101 -221 95 -237 -5
-12 -216 -93 -272 -103 l-30 -5 -58 157 c-32 86 -56 158 -55 159 2 1 50 18
108 39 58 20 116 43 130 51 14 8 30 13 35 12 6 -2 27 -34 47 -73z m3204 -81
c-1 -30 3 -38 19 -42 11 -2 26 -11 33 -20 7 -9 11 -10 7 -3 -8 15 21 16 31 1
4 -8 9 -7 16 2 7 11 11 11 15 1 2 -6 9 -9 14 -6 6 3 18 3 27 -1 28 -12 66 -12
74 -1 5 7 8 6 8 -3 0 -11 3 -11 15 -1 12 10 15 10 15 -1 0 -7 10 -3 25 11 14
13 25 20 25 15 0 -4 9 3 20 16 11 13 30 35 42 49 l21 25 -7 -28 c-11 -45 -45
-93 -167 -232 -206 -235 -435 -456 -734 -711 -209 -177 -798 -585 -979 -677
-72 -37 -136 -35 -190 6 -40 31 -72 103 -62 142 12 48 90 117 256 228 258 172
400 274 595 431 219 175 583 514 749 695 71 77 130 141 132 141 1 0 1 -17 0
-37z m-5551 2 c44 -14 88 -25 99 -25 23 0 21 -11 -31 -198 -21 -75 -42 -130
-48 -128 -5 3 -48 17 -95 31 -47 15 -89 31 -93 35 -10 9 20 128 60 238 14 39
26 72 27 72 0 0 37 -11 81 -25z m1900 -135 c20 -63 38 -130 41 -151 l6 -37
-53 -15 c-175 -50 -493 -96 -716 -104 l-173 -6 0 -131 c0 -72 -3 -189 -7 -261
-7 -121 -8 -126 -14 -65 -4 36 -8 130 -9 210 -1 80 -5 186 -9 235 -5 78 -7 85
-14 53 l-8 -38 -103 0 c-142 0 -606 47 -622 62 -5 5 71 306 79 314 3 3 43 1
89 -5 266 -33 759 -39 1023 -11 110 12 299 43 385 63 30 8 59 11 63 7 4 -4 23
-58 42 -120z m-2975 5 c0 -3 -22 6 -50 20 -27 14 -50 28 -50 30 0 3 23 -6 50
-20 28 -14 50 -28 50 -30z m4316 -531 c21 -27 29 -50 32 -93 4 -53 2 -61 -27
-93 -40 -46 -120 -87 -361 -186 -486 -200 -1088 -344 -1557 -372 -285 -18
-808 -7 -919 19 -30 6 -9 9 91 9 108 0 210 6 210 12 0 1 16 4 35 6 19 3 44 9
55 14 11 6 81 11 155 13 121 2 115 3 -50 5 -337 4 -643 37 -909 97 -158 36
-211 42 -211 26 0 -5 10 -13 23 -17 12 -3 29 -12 37 -19 8 -7 53 -21 99 -31
46 -10 85 -24 88 -31 3 -7 15 -13 27 -13 11 0 28 -5 36 -10 12 -8 9 -9 -10 -6
-14 3 -77 15 -140 26 -139 24 -175 34 -217 59 -43 27 -63 60 -65 109 -2 48 19
84 65 113 39 24 61 22 244 -20 294 -68 536 -100 823 -108 213 -6 492 7 705 33
269 32 681 123 935 206 148 48 476 178 610 242 122 58 159 60 196 10z m618
-94 c79 -50 110 -160 68 -239 -44 -82 -166 -125 -243 -86 -80 41 -109 88 -109
178 0 73 22 116 79 154 53 36 142 32 205 -7z m-524 -415 c58 -30 77 -94 45
-155 -22 -42 -53 -60 -106 -60 -35 0 -52 6 -73 25 -57 53 -62 121 -12 171 28
28 42 34 75 34 23 0 55 -7 71 -15z m-3933 -170 c48 -20 71 -41 94 -87 61 -119
-27 -260 -164 -261 -63 -1 -107 22 -145 77 -23 33 -27 50 -27 107 0 60 3 71
30 105 57 70 134 91 212 59z m-2207 -133 c20 -9 137 -85 260 -168 242 -162
381 -246 610 -369 189 -101 275 -151 294 -171 40 -40 -7 -166 -71 -193 -34
-14 -53 -6 -333 144 -295 158 -860 519 -900 575 -44 62 -34 132 26 179 32 25
67 26 114 3z m5318 -560 c49 -49 133 -165 126 -172 -15 -15 -139 -58 -243 -85
-308 -78 -690 -142 -976 -164 -371 -29 -819 -23 -1150 15 -200 22 -499 66
-507 73 -10 9 80 148 121 187 41 40 102 49 222 35 357 -43 948 -55 1304 -27
356 29 478 46 800 110 251 51 278 53 303 28z m-6379 -446 c245 -182 433 -300
926 -583 94 -54 370 -191 595 -295 623 -289 1356 -504 2075 -608 823 -118
1471 -127 2250 -29 767 96 1525 300 2212 595 145 62 182 74 228 74 47 0 59 -4
90 -31 47 -41 65 -78 65 -131 0 -51 -25 -95 -72 -132 -81 -61 -825 -341 -1193
-447 -471 -137 -1083 -247 -1665 -300 -188 -17 -892 -23 -1131 -10 -962 53
-1852 245 -2676 577 -580 233 -1202 562 -1688 892 -193 132 -330 229 -393 280
l-43 35 57 54 c63 59 200 153 222 153 8 0 72 -42 141 -94z m1137 -57 c38 -19
150 -76 249 -126 223 -113 291 -145 528 -244 488 -205 895 -327 1494 -449 470
-96 1135 -145 1661 -121 641 28 1031 80 1550 207 610 148 1113 335 1700 631
221 111 271 133 308 133 84 0 134 -46 134 -122 0 -87 -29 -112 -308 -262 -790
-426 -1737 -718 -2692 -830 -397 -47 -483 -51 -975 -50 -520 0 -621 7 -1065
69 -961 136 -1885 446 -2658 891 -132 77 -136 80 -160 123 -26 46 -27 71 -5
118 38 81 118 92 239 32z"/>
<path d="M9033 15116 c3 -8 -1 -20 -9 -27 -8 -6 -12 -14 -9 -17 7 -7 34 29 35
46 0 6 -5 12 -11 12 -6 0 -9 -6 -6 -14z"/>
<path d="M8975 15113 c-38 -8 -210 -65 -242 -79 -58 -26 -40 -37 50 -29 45 4
84 10 87 14 3 4 27 15 53 25 41 15 97 57 97 71 0 6 -15 5 -45 -2z"/>
<path d="M8545 14940 c-3 -6 1 -7 9 -4 18 7 21 14 7 14 -6 0 -13 -4 -16 -10z"/>
<path d="M11784 13774 c-4 -17 -2 -29 7 -35 18 -11 24 -3 10 14 -6 8 -9 22 -5
31 3 9 3 16 0 16 -3 0 -9 -12 -12 -26z"/>
<path d="M2895 11190 c-3 -5 -1 -10 4 -10 6 0 11 5 11 10 0 6 -2 10 -4 10 -3
0 -8 -4 -11 -10z"/>
<path d="M1646 11123 c-3 -4 10 -16 30 -28 23 -14 32 -25 25 -29 -6 -4 -11 -2
-11 3 0 6 -7 11 -16 11 -8 0 -12 -4 -9 -10 3 -6 -1 -7 -9 -4 -9 4 -16 1 -16
-6 0 -7 -7 -10 -16 -6 -14 5 -15 4 -4 -9 10 -12 11 -18 1 -28 -10 -9 -11 -8
-6 6 4 10 2 17 -4 17 -6 0 -17 16 -25 35 -8 19 -17 35 -20 35 -9 0 -2 -24 9
-32 6 -4 2 -13 -10 -22 -18 -13 -18 -15 -3 -21 9 -4 14 -13 11 -21 -3 -8 0
-14 6 -14 6 0 8 -7 5 -15 -4 -8 -1 -15 4 -15 6 0 14 -9 17 -21 11 -34 52 -43
95 -20 21 11 41 17 44 14 3 -4 6 -1 6 5 0 7 -5 12 -11 12 -5 0 -7 5 -4 10 4 6
10 8 15 5 5 -3 14 4 20 15 9 16 8 22 -5 26 -10 4 -13 13 -10 25 7 21 -5 25
-23 7 -8 -8 -12 -8 -12 -1 0 6 7 13 15 17 8 3 14 16 14 28 -1 17 -2 18 -6 6
-5 -19 -23 -25 -23 -7 0 5 -4 7 -10 4 -5 -3 -10 -1 -10 5 0 6 -4 9 -9 5 -5 -3
-16 1 -24 9 -8 8 -17 12 -21 9z"/>
<path d="M11414 7695 c-46 -19 -59 -55 -58 -160 1 -79 4 -97 23 -124 40 -56
109 -53 144 7 21 36 34 140 23 194 -14 70 -74 108 -132 83z"/>
<path d="M5546 7581 c-10 -44 -15 -85 -11 -91 7 -12 85 -14 85 -2 0 17 -42
158 -49 165 -4 4 -16 -28 -25 -72z"/>
<path d="M8142 7628 l3 -73 79 1 c70 1 82 4 98 24 23 29 23 82 0 103 -14 13
-38 17 -101 17 l-82 0 3 -72z"/>
<path d="M8731 7607 c-7 -24 -11 -61 -9 -82 3 -36 6 -40 32 -43 16 -2 32 0 37
5 9 9 -31 163 -42 163 -4 0 -12 -19 -18 -43z"/>
<path d="M9900 7535 l0 -165 100 0 100 0 0 165 0 165 -100 0 -100 0 0 -165z"/>
<path d="M10203 7675 c4 -9 7 -79 7 -156 0 -133 1 -139 20 -139 68 0 110 66
110 175 0 57 -3 68 -27 94 -34 36 -121 57 -110 26z"/>
<path d="M12490 7701 c-23 -7 -25 -12 -24 -64 2 -77 14 -90 83 -85 41 4 59 10
73 28 23 28 23 82 1 102 -21 18 -98 29 -133 19z"/>
<path d="M17101 6897 c-13 -21 -12 -21 5 -5 10 10 16 20 13 22 -3 3 -11 -5
-18 -17z"/>
<path d="M15880 6810 c0 -5 5 -10 11 -10 5 0 7 5 4 10 -3 6 -8 10 -11 10 -2 0
-4 -4 -4 -10z"/>
<path d="M15895 6670 c11 -5 27 -9 35 -9 13 -1 13 0 0 9 -8 5 -24 9 -35 9
l-20 0 20 -9z"/>
<path d="M16790 6640 c0 -5 5 -10 11 -10 5 0 7 5 4 10 -3 6 -8 10 -11 10 -2 0
-4 -4 -4 -10z"/>
<path d="M16049 6580 c37 -61 27 -92 -66 -217 -29 -40 -53 -79 -53 -87 0 -8
-5 -18 -12 -22 -7 -4 -8 -3 -4 4 4 7 5 12 2 12 -3 0 -31 -33 -63 -72 -32 -40
-95 -117 -140 -170 -46 -53 -83 -100 -83 -104 0 -4 9 3 20 16 11 13 20 19 20
15 0 -4 9 3 21 16 11 13 31 36 45 52 13 15 21 27 17 27 -5 0 0 5 10 11 9 5 17
17 17 26 0 9 3 14 6 10 9 -9 34 19 34 38 0 9 5 13 10 10 6 -3 10 4 11 17 0 13
3 17 6 11 3 -8 22 7 50 38 26 28 52 48 60 45 8 -3 13 2 13 14 0 11 9 25 20 32
11 7 20 17 20 23 0 6 9 17 20 25 11 8 20 22 20 32 0 10 3 18 8 18 8 0 32 48
32 66 0 7 6 15 13 17 6 3 7 6 2 6 -7 1 -9 16 -7 36 3 21 0 35 -7 35 -5 0 -22
12 -36 28 l-27 27 21 -35z"/>
<path d="M16831 6594 c0 -11 3 -14 6 -6 3 7 2 16 -1 19 -3 4 -6 -2 -5 -13z"/>
<path d="M16796 6564 c-9 -24 -7 -27 9 -10 17 17 19 26 6 26 -5 0 -12 -7 -15
-16z"/>
<path d="M16314 6486 c-12 -6 -30 -18 -40 -26 -11 -9 -15 -10 -10 -2 14 23 -4
12 -34 -20 -16 -18 -30 -38 -30 -45 0 -6 -12 -21 -26 -32 -14 -11 -23 -25 -19
-31 3 -5 2 -10 -4 -10 -6 0 -15 -15 -20 -32 -5 -18 -10 -26 -10 -16 -1 19 -41
14 -41 -6 0 -6 -8 -2 -17 9 -15 20 -15 20 -10 -2 4 -17 1 -23 -11 -23 -15 0
-15 -2 -2 -10 9 -5 17 -5 20 1 4 5 16 0 28 -11 23 -22 37 -27 26 -9 -3 6 0 15
7 20 22 14 33 10 19 -6 -7 -8 -9 -15 -4 -15 5 0 3 -4 -5 -9 -18 -12 -5 -32 17
-25 14 5 14 4 2 -4 -12 -9 -11 -13 6 -29 12 -10 26 -28 33 -41 7 -12 16 -20
20 -18 4 3 13 -5 19 -19 16 -35 81 -104 113 -121 48 -24 46 -15 -3 16 -89 56
-139 149 -139 261 0 91 31 159 103 224 50 44 53 54 12 31z"/>
<path d="M16093 6315 c-9 -9 -9 -16 -2 -20 12 -8 41 14 33 26 -7 12 -17 11
-31 -6z"/>
<path d="M16055 6200 c-18 -19 -17 -20 6 -20 19 0 21 2 9 10 -13 8 -12 10 3
10 9 0 17 5 17 10 0 16 -15 12 -35 -10z"/>
<path d="M16096 6184 c-8 -22 -7 -34 3 -34 12 0 21 39 11 45 -4 3 -11 -2 -14
-11z"/>
<path d="M4098 6056 c-16 -19 -28 -39 -28 -43 0 -9 34 31 51 60 15 27 7 20
-23 -17z"/>
<path d="M3908 5923 c7 -3 16 -2 19 1 4 3 -2 6 -13 5 -11 0 -14 -3 -6 -6z"/>
<path d="M5231 5570 c29 -46 29 -45 29 -32 0 6 -12 24 -26 39 l-26 28 23 -35z"/>
<path d="M5200 5570 c0 -5 5 -10 11 -10 5 0 7 5 4 10 -3 6 -8 10 -11 10 -2 0
-4 -4 -4 -10z"/>
<path d="M5294 5469 c0 -11 5 -18 10 -16 16 5 18 24 4 30 -9 3 -14 -3 -14 -14z"/>
<path d="M12004 5361 c8 -13 -23 -23 -47 -15 -14 4 -17 3 -12 -7 6 -9 3 -11
-9 -6 -11 5 -15 3 -10 -5 5 -7 2 -9 -8 -6 -9 4 -15 0 -15 -8 0 -17 1 -17 37 1
17 9 30 13 30 10 0 -3 14 1 30 10 34 18 36 21 14 29 -8 3 -13 2 -10 -3z"/>
<path d="M11475 5184 c-105 -32 -106 -32 -63 -30 21 0 38 4 38 8 0 4 17 10 38
14 41 8 106 34 82 33 -8 -1 -51 -12 -95 -25z"/>
<path d="M11348 5143 c7 -3 16 -2 19 1 4 3 -2 6 -13 5 -11 0 -14 -3 -6 -6z"/>
<path d="M11268 5123 c7 -3 16 -2 19 1 4 3 -2 6 -13 5 -11 0 -14 -3 -6 -6z"/>
<path d="M11228 5113 c7 -3 16 -2 19 1 4 3 -2 6 -13 5 -11 0 -14 -3 -6 -6z"/>
<path d="M11178 5103 c7 -3 16 -2 19 1 4 3 -2 6 -13 5 -11 0 -14 -3 -6 -6z"/>
<path d="M11138 5093 c7 -3 16 -2 19 1 4 3 -2 6 -13 5 -11 0 -14 -3 -6 -6z"/>
<path d="M11063 5083 c-13 -3 -23 -12 -23 -21 0 -11 3 -13 8 -6 4 6 21 16 37
22 30 10 19 13 -22 5z"/>
<path d="M10905 5055 c-44 -7 -147 -19 -230 -26 -98 -9 -140 -16 -120 -20 17
-4 23 -7 16 -8 -11 -1 -12 -4 -4 -12 5 -5 46 -10 89 -10 44 0 88 0 99 0 11 0
25 0 30 0 18 0 110 25 115 31 3 3 17 7 31 8 37 2 101 31 94 42 -7 12 -14 11
-120 -5z"/>
<path d="M10298 4993 c12 -2 30 -2 40 0 9 3 -1 5 -23 4 -22 0 -30 -2 -17 -4z"/>
</g>
</svg>
